<mxfile host="app.diagrams.net" modified="2022-05-18T10:04:43.490Z" agent="5.0 (X11)" etag="g44HUZjybGflxoXgk_Xd" version="17.4.4" type="github">
  <diagram id="C5RBs43oDa-KdzZeNtuy" name="Page-1">
    <mxGraphModel dx="1355" dy="793" grid="1" gridSize="10" guides="1" tooltips="1" connect="1" arrows="1" fold="1" page="1" pageScale="1" pageWidth="827" pageHeight="1169" math="0" shadow="0">
      <root>
        <mxCell id="WIyWlLk6GJQsqaUBKTNV-0" />
        <mxCell id="WIyWlLk6GJQsqaUBKTNV-1" parent="WIyWlLk6GJQsqaUBKTNV-0" />
        <mxCell id="WIyWlLk6GJQsqaUBKTNV-2" value="" style="rounded=0;html=1;jettySize=auto;orthogonalLoop=1;fontSize=11;endArrow=block;endFill=0;endSize=8;strokeWidth=1;shadow=0;labelBackgroundColor=none;edgeStyle=orthogonalEdgeStyle;" parent="WIyWlLk6GJQsqaUBKTNV-1" source="WIyWlLk6GJQsqaUBKTNV-3" target="WIyWlLk6GJQsqaUBKTNV-6" edge="1">
          <mxGeometry relative="1" as="geometry">
            <Array as="points">
              <mxPoint x="220" y="150" />
              <mxPoint x="220" y="150" />
            </Array>
          </mxGeometry>
        </mxCell>
        <mxCell id="WIyWlLk6GJQsqaUBKTNV-3" value="搜索设备" style="rounded=1;whiteSpace=wrap;html=1;fontSize=12;glass=0;strokeWidth=1;shadow=0;" parent="WIyWlLk6GJQsqaUBKTNV-1" vertex="1">
          <mxGeometry x="160" y="80" width="120" height="40" as="geometry" />
        </mxCell>
        <mxCell id="WIyWlLk6GJQsqaUBKTNV-4" value="Yes" style="rounded=0;html=1;jettySize=auto;orthogonalLoop=1;fontSize=11;endArrow=block;endFill=0;endSize=8;strokeWidth=1;shadow=0;labelBackgroundColor=none;edgeStyle=orthogonalEdgeStyle;" parent="WIyWlLk6GJQsqaUBKTNV-1" source="WIyWlLk6GJQsqaUBKTNV-6" edge="1">
          <mxGeometry y="20" relative="1" as="geometry">
            <mxPoint as="offset" />
            <mxPoint x="220" y="310" as="targetPoint" />
          </mxGeometry>
        </mxCell>
        <mxCell id="WIyWlLk6GJQsqaUBKTNV-5" value="No" style="edgeStyle=orthogonalEdgeStyle;rounded=0;html=1;jettySize=auto;orthogonalLoop=1;fontSize=11;endArrow=block;endFill=0;endSize=8;strokeWidth=1;shadow=0;labelBackgroundColor=none;" parent="WIyWlLk6GJQsqaUBKTNV-1" source="WIyWlLk6GJQsqaUBKTNV-6" target="WIyWlLk6GJQsqaUBKTNV-7" edge="1">
          <mxGeometry y="10" relative="1" as="geometry">
            <mxPoint as="offset" />
          </mxGeometry>
        </mxCell>
        <mxCell id="WIyWlLk6GJQsqaUBKTNV-6" value="手机是否开启蓝牙" style="rhombus;whiteSpace=wrap;html=1;shadow=0;fontFamily=Helvetica;fontSize=12;align=center;strokeWidth=1;spacing=6;spacingTop=-4;" parent="WIyWlLk6GJQsqaUBKTNV-1" vertex="1">
          <mxGeometry x="170" y="170" width="100" height="80" as="geometry" />
        </mxCell>
        <mxCell id="WIyWlLk6GJQsqaUBKTNV-7" value="打开手机蓝牙" style="rounded=1;whiteSpace=wrap;html=1;fontSize=12;glass=0;strokeWidth=1;shadow=0;" parent="WIyWlLk6GJQsqaUBKTNV-1" vertex="1">
          <mxGeometry x="320" y="190" width="120" height="40" as="geometry" />
        </mxCell>
        <mxCell id="nWBaPwG6AGPk3cazCdHM-0" value="开始搜索设备" style="rounded=1;whiteSpace=wrap;html=1;" vertex="1" parent="WIyWlLk6GJQsqaUBKTNV-1">
          <mxGeometry x="160" y="310" width="120" height="60" as="geometry" />
        </mxCell>
        <mxCell id="nWBaPwG6AGPk3cazCdHM-5" value="" style="rounded=0;html=1;jettySize=auto;orthogonalLoop=1;fontSize=11;endArrow=block;endFill=0;endSize=8;strokeWidth=1;shadow=0;labelBackgroundColor=none;edgeStyle=orthogonalEdgeStyle;" edge="1" parent="WIyWlLk6GJQsqaUBKTNV-1">
          <mxGeometry relative="1" as="geometry">
            <mxPoint x="219.5" y="370" as="sourcePoint" />
            <mxPoint x="219.5" y="420" as="targetPoint" />
            <Array as="points">
              <mxPoint x="219.5" y="400" />
              <mxPoint x="219.5" y="400" />
            </Array>
          </mxGeometry>
        </mxCell>
        <mxCell id="nWBaPwG6AGPk3cazCdHM-6" value="" style="rounded=0;html=1;jettySize=auto;orthogonalLoop=1;fontSize=11;endArrow=block;endFill=0;endSize=8;strokeWidth=1;shadow=0;labelBackgroundColor=none;edgeStyle=orthogonalEdgeStyle;exitX=0.5;exitY=1;exitDx=0;exitDy=0;" edge="1" parent="WIyWlLk6GJQsqaUBKTNV-1" source="WIyWlLk6GJQsqaUBKTNV-7">
          <mxGeometry relative="1" as="geometry">
            <mxPoint x="370" y="240" as="sourcePoint" />
            <mxPoint x="290" y="340" as="targetPoint" />
            <Array as="points">
              <mxPoint x="380" y="340" />
            </Array>
          </mxGeometry>
        </mxCell>
        <mxCell id="nWBaPwG6AGPk3cazCdHM-9" value="停止搜索" style="rounded=1;whiteSpace=wrap;html=1;" vertex="1" parent="WIyWlLk6GJQsqaUBKTNV-1">
          <mxGeometry x="370" y="420" width="120" height="60" as="geometry" />
        </mxCell>
        <mxCell id="nWBaPwG6AGPk3cazCdHM-11" value="发现蓝牙设备" style="rounded=1;whiteSpace=wrap;html=1;" vertex="1" parent="WIyWlLk6GJQsqaUBKTNV-1">
          <mxGeometry x="160" y="420" width="120" height="60" as="geometry" />
        </mxCell>
        <mxCell id="nWBaPwG6AGPk3cazCdHM-12" value="" style="rounded=0;html=1;jettySize=auto;orthogonalLoop=1;fontSize=11;endArrow=block;endFill=0;endSize=8;strokeWidth=1;shadow=0;labelBackgroundColor=none;edgeStyle=orthogonalEdgeStyle;entryX=0;entryY=0.5;entryDx=0;entryDy=0;exitX=1;exitY=0.5;exitDx=0;exitDy=0;" edge="1" parent="WIyWlLk6GJQsqaUBKTNV-1" source="nWBaPwG6AGPk3cazCdHM-11" target="nWBaPwG6AGPk3cazCdHM-9">
          <mxGeometry relative="1" as="geometry">
            <mxPoint x="320" y="420" as="sourcePoint" />
            <mxPoint x="320" y="470" as="targetPoint" />
            <Array as="points" />
          </mxGeometry>
        </mxCell>
        <mxCell id="nWBaPwG6AGPk3cazCdHM-13" value="" style="rounded=0;html=1;jettySize=auto;orthogonalLoop=1;fontSize=11;endArrow=block;endFill=0;endSize=8;strokeWidth=1;shadow=0;labelBackgroundColor=none;edgeStyle=orthogonalEdgeStyle;" edge="1" parent="WIyWlLk6GJQsqaUBKTNV-1">
          <mxGeometry relative="1" as="geometry">
            <mxPoint x="220" y="480" as="sourcePoint" />
            <mxPoint x="220" y="530" as="targetPoint" />
            <Array as="points">
              <mxPoint x="220" y="510" />
              <mxPoint x="220" y="510" />
            </Array>
          </mxGeometry>
        </mxCell>
        <mxCell id="nWBaPwG6AGPk3cazCdHM-14" value="点击连接设备" style="rounded=1;whiteSpace=wrap;html=1;" vertex="1" parent="WIyWlLk6GJQsqaUBKTNV-1">
          <mxGeometry x="160" y="530" width="120" height="60" as="geometry" />
        </mxCell>
        <mxCell id="nWBaPwG6AGPk3cazCdHM-15" value="" style="rounded=0;html=1;jettySize=auto;orthogonalLoop=1;fontSize=11;endArrow=block;endFill=0;endSize=8;strokeWidth=1;shadow=0;labelBackgroundColor=none;edgeStyle=orthogonalEdgeStyle;" edge="1" parent="WIyWlLk6GJQsqaUBKTNV-1">
          <mxGeometry relative="1" as="geometry">
            <mxPoint x="220" y="590" as="sourcePoint" />
            <mxPoint x="220" y="640" as="targetPoint" />
            <Array as="points">
              <mxPoint x="220" y="620" />
              <mxPoint x="220" y="620" />
            </Array>
          </mxGeometry>
        </mxCell>
        <mxCell id="nWBaPwG6AGPk3cazCdHM-16" value="是否绑定" style="rhombus;whiteSpace=wrap;html=1;" vertex="1" parent="WIyWlLk6GJQsqaUBKTNV-1">
          <mxGeometry x="155" y="640" width="130" height="80" as="geometry" />
        </mxCell>
        <mxCell id="nWBaPwG6AGPk3cazCdHM-17" value="Yes" style="rounded=0;html=1;jettySize=auto;orthogonalLoop=1;fontSize=11;endArrow=block;endFill=0;endSize=8;strokeWidth=1;shadow=0;labelBackgroundColor=none;edgeStyle=orthogonalEdgeStyle;" edge="1" parent="WIyWlLk6GJQsqaUBKTNV-1">
          <mxGeometry y="20" relative="1" as="geometry">
            <mxPoint as="offset" />
            <mxPoint x="220" y="720" as="sourcePoint" />
            <mxPoint x="220" y="780" as="targetPoint" />
          </mxGeometry>
        </mxCell>
        <mxCell id="nWBaPwG6AGPk3cazCdHM-23" value="绑定设备成功" style="rhombus;whiteSpace=wrap;html=1;" vertex="1" parent="WIyWlLk6GJQsqaUBKTNV-1">
          <mxGeometry x="180" y="780" width="80" height="60" as="geometry" />
        </mxCell>
        <mxCell id="nWBaPwG6AGPk3cazCdHM-24" value="Yes" style="rounded=0;html=1;jettySize=auto;orthogonalLoop=1;fontSize=11;endArrow=block;endFill=0;endSize=8;strokeWidth=1;shadow=0;labelBackgroundColor=none;edgeStyle=orthogonalEdgeStyle;" edge="1" parent="WIyWlLk6GJQsqaUBKTNV-1">
          <mxGeometry y="20" relative="1" as="geometry">
            <mxPoint as="offset" />
            <mxPoint x="220" y="840" as="sourcePoint" />
            <mxPoint x="220" y="900" as="targetPoint" />
          </mxGeometry>
        </mxCell>
        <mxCell id="nWBaPwG6AGPk3cazCdHM-26" value="No" style="rounded=0;html=1;jettySize=auto;orthogonalLoop=1;fontSize=11;endArrow=block;endFill=0;endSize=8;strokeWidth=1;shadow=0;labelBackgroundColor=none;edgeStyle=orthogonalEdgeStyle;exitX=0;exitY=0.5;exitDx=0;exitDy=0;entryX=0;entryY=0.5;entryDx=0;entryDy=0;" edge="1" parent="WIyWlLk6GJQsqaUBKTNV-1" source="nWBaPwG6AGPk3cazCdHM-23" target="nWBaPwG6AGPk3cazCdHM-14">
          <mxGeometry x="0.3333" y="20" relative="1" as="geometry">
            <mxPoint as="offset" />
            <mxPoint x="110" y="770" as="sourcePoint" />
            <mxPoint x="110" y="550" as="targetPoint" />
            <Array as="points">
              <mxPoint x="80" y="810" />
              <mxPoint x="80" y="560" />
            </Array>
          </mxGeometry>
        </mxCell>
        <mxCell id="nWBaPwG6AGPk3cazCdHM-28" value="No" style="rounded=0;html=1;jettySize=auto;orthogonalLoop=1;fontSize=11;endArrow=block;endFill=0;endSize=8;strokeWidth=1;shadow=0;labelBackgroundColor=none;edgeStyle=orthogonalEdgeStyle;exitX=1;exitY=0.5;exitDx=0;exitDy=0;entryX=1;entryY=0.5;entryDx=0;entryDy=0;" edge="1" parent="WIyWlLk6GJQsqaUBKTNV-1" source="nWBaPwG6AGPk3cazCdHM-16" target="nWBaPwG6AGPk3cazCdHM-29">
          <mxGeometry x="0.3333" y="20" relative="1" as="geometry">
            <mxPoint as="offset" />
            <mxPoint x="410" y="640" as="sourcePoint" />
            <mxPoint x="400" y="840" as="targetPoint" />
            <Array as="points">
              <mxPoint x="390" y="680" />
              <mxPoint x="390" y="940" />
            </Array>
          </mxGeometry>
        </mxCell>
        <mxCell id="nWBaPwG6AGPk3cazCdHM-29" value="connetGatt" style="rhombus;whiteSpace=wrap;html=1;" vertex="1" parent="WIyWlLk6GJQsqaUBKTNV-1">
          <mxGeometry x="180" y="900" width="80" height="80" as="geometry" />
        </mxCell>
        <mxCell id="nWBaPwG6AGPk3cazCdHM-30" value="Yes" style="rounded=0;html=1;jettySize=auto;orthogonalLoop=1;fontSize=11;endArrow=block;endFill=0;endSize=8;strokeWidth=1;shadow=0;labelBackgroundColor=none;edgeStyle=orthogonalEdgeStyle;" edge="1" parent="WIyWlLk6GJQsqaUBKTNV-1">
          <mxGeometry y="20" relative="1" as="geometry">
            <mxPoint as="offset" />
            <mxPoint x="220" y="980" as="sourcePoint" />
            <mxPoint x="220" y="1040" as="targetPoint" />
          </mxGeometry>
        </mxCell>
        <mxCell id="nWBaPwG6AGPk3cazCdHM-31" value="No" style="rounded=0;html=1;jettySize=auto;orthogonalLoop=1;fontSize=11;endArrow=block;endFill=0;endSize=8;strokeWidth=1;shadow=0;labelBackgroundColor=none;edgeStyle=orthogonalEdgeStyle;exitX=0;exitY=0.5;exitDx=0;exitDy=0;" edge="1" parent="WIyWlLk6GJQsqaUBKTNV-1" source="nWBaPwG6AGPk3cazCdHM-29">
          <mxGeometry x="0.3333" y="20" relative="1" as="geometry">
            <mxPoint as="offset" />
            <mxPoint x="170" y="940" as="sourcePoint" />
            <mxPoint x="80" y="810" as="targetPoint" />
            <Array as="points">
              <mxPoint x="80" y="940" />
            </Array>
          </mxGeometry>
        </mxCell>
        <mxCell id="nWBaPwG6AGPk3cazCdHM-32" value="sayHello" style="rounded=1;whiteSpace=wrap;html=1;" vertex="1" parent="WIyWlLk6GJQsqaUBKTNV-1">
          <mxGeometry x="160" y="1040" width="120" height="60" as="geometry" />
        </mxCell>
        <mxCell id="nWBaPwG6AGPk3cazCdHM-33" value="" style="rounded=0;html=1;jettySize=auto;orthogonalLoop=1;fontSize=11;endArrow=block;endFill=0;endSize=8;strokeWidth=1;shadow=0;labelBackgroundColor=none;edgeStyle=orthogonalEdgeStyle;" edge="1" parent="WIyWlLk6GJQsqaUBKTNV-1">
          <mxGeometry relative="1" as="geometry">
            <mxPoint x="220" y="1100" as="sourcePoint" />
            <mxPoint x="220" y="1150" as="targetPoint" />
            <Array as="points">
              <mxPoint x="220" y="1130" />
              <mxPoint x="220" y="1130" />
            </Array>
          </mxGeometry>
        </mxCell>
        <mxCell id="nWBaPwG6AGPk3cazCdHM-34" value="finish" style="rounded=1;whiteSpace=wrap;html=1;" vertex="1" parent="WIyWlLk6GJQsqaUBKTNV-1">
          <mxGeometry x="155" y="1150" width="120" height="60" as="geometry" />
        </mxCell>
        <mxCell id="nWBaPwG6AGPk3cazCdHM-35" value="connetWifiActivity" style="rounded=1;whiteSpace=wrap;html=1;" vertex="1" parent="WIyWlLk6GJQsqaUBKTNV-1">
          <mxGeometry x="640" y="80" width="120" height="60" as="geometry" />
        </mxCell>
        <mxCell id="nWBaPwG6AGPk3cazCdHM-36" value="" style="rounded=0;html=1;jettySize=auto;orthogonalLoop=1;fontSize=11;endArrow=block;endFill=0;endSize=8;strokeWidth=1;shadow=0;labelBackgroundColor=none;edgeStyle=orthogonalEdgeStyle;" edge="1" parent="WIyWlLk6GJQsqaUBKTNV-1">
          <mxGeometry relative="1" as="geometry">
            <mxPoint x="700" y="140" as="sourcePoint" />
            <mxPoint x="700" y="190" as="targetPoint" />
            <Array as="points">
              <mxPoint x="700" y="170" />
              <mxPoint x="700" y="170" />
            </Array>
          </mxGeometry>
        </mxCell>
        <mxCell id="nWBaPwG6AGPk3cazCdHM-37" value="syncWifiState" style="rounded=1;whiteSpace=wrap;html=1;" vertex="1" parent="WIyWlLk6GJQsqaUBKTNV-1">
          <mxGeometry x="640" y="190" width="120" height="60" as="geometry" />
        </mxCell>
        <mxCell id="nWBaPwG6AGPk3cazCdHM-38" value="" style="rounded=0;html=1;jettySize=auto;orthogonalLoop=1;fontSize=11;endArrow=block;endFill=0;endSize=8;strokeWidth=1;shadow=0;labelBackgroundColor=none;edgeStyle=orthogonalEdgeStyle;" edge="1" parent="WIyWlLk6GJQsqaUBKTNV-1">
          <mxGeometry relative="1" as="geometry">
            <mxPoint x="700" y="250" as="sourcePoint" />
            <mxPoint x="700" y="300" as="targetPoint" />
            <Array as="points">
              <mxPoint x="700" y="280" />
              <mxPoint x="700" y="280" />
            </Array>
          </mxGeometry>
        </mxCell>
        <mxCell id="nWBaPwG6AGPk3cazCdHM-39" value="是否开启WiFi" style="rhombus;whiteSpace=wrap;html=1;" vertex="1" parent="WIyWlLk6GJQsqaUBKTNV-1">
          <mxGeometry x="660" y="300" width="80" height="80" as="geometry" />
        </mxCell>
        <mxCell id="nWBaPwG6AGPk3cazCdHM-40" value="Yes" style="rounded=0;html=1;jettySize=auto;orthogonalLoop=1;fontSize=11;endArrow=block;endFill=0;endSize=8;strokeWidth=1;shadow=0;labelBackgroundColor=none;edgeStyle=orthogonalEdgeStyle;" edge="1" parent="WIyWlLk6GJQsqaUBKTNV-1">
          <mxGeometry y="20" relative="1" as="geometry">
            <mxPoint as="offset" />
            <mxPoint x="700" y="380" as="sourcePoint" />
            <mxPoint x="700" y="440" as="targetPoint" />
          </mxGeometry>
        </mxCell>
        <mxCell id="nWBaPwG6AGPk3cazCdHM-41" value="No" style="rounded=0;html=1;jettySize=auto;orthogonalLoop=1;fontSize=11;endArrow=block;endFill=0;endSize=8;strokeWidth=1;shadow=0;labelBackgroundColor=none;edgeStyle=orthogonalEdgeStyle;exitX=1;exitY=0.5;exitDx=0;exitDy=0;entryX=0.5;entryY=0;entryDx=0;entryDy=0;" edge="1" parent="WIyWlLk6GJQsqaUBKTNV-1" source="nWBaPwG6AGPk3cazCdHM-39" target="nWBaPwG6AGPk3cazCdHM-42">
          <mxGeometry x="0.3333" y="20" relative="1" as="geometry">
            <mxPoint as="offset" />
            <mxPoint x="810" y="350" as="sourcePoint" />
            <mxPoint x="910" y="340" as="targetPoint" />
          </mxGeometry>
        </mxCell>
        <mxCell id="nWBaPwG6AGPk3cazCdHM-42" value="打开设备WiFi" style="rounded=1;whiteSpace=wrap;html=1;" vertex="1" parent="WIyWlLk6GJQsqaUBKTNV-1">
          <mxGeometry x="810" y="390" width="120" height="60" as="geometry" />
        </mxCell>
        <mxCell id="nWBaPwG6AGPk3cazCdHM-43" value="wifiScan搜索WiFi列表" style="rounded=1;whiteSpace=wrap;html=1;" vertex="1" parent="WIyWlLk6GJQsqaUBKTNV-1">
          <mxGeometry x="640" y="440" width="120" height="60" as="geometry" />
        </mxCell>
        <mxCell id="nWBaPwG6AGPk3cazCdHM-44" value="" style="rounded=0;html=1;jettySize=auto;orthogonalLoop=1;fontSize=11;endArrow=block;endFill=0;endSize=8;strokeWidth=1;shadow=0;labelBackgroundColor=none;edgeStyle=orthogonalEdgeStyle;" edge="1" parent="WIyWlLk6GJQsqaUBKTNV-1">
          <mxGeometry relative="1" as="geometry">
            <mxPoint x="700" y="500" as="sourcePoint" />
            <mxPoint x="700" y="550" as="targetPoint" />
            <Array as="points">
              <mxPoint x="700" y="530" />
              <mxPoint x="700" y="530" />
            </Array>
          </mxGeometry>
        </mxCell>
        <mxCell id="nWBaPwG6AGPk3cazCdHM-45" value="连接WiFi" style="rounded=1;whiteSpace=wrap;html=1;" vertex="1" parent="WIyWlLk6GJQsqaUBKTNV-1">
          <mxGeometry x="640" y="550" width="120" height="60" as="geometry" />
        </mxCell>
        <mxCell id="nWBaPwG6AGPk3cazCdHM-46" value="" style="rounded=0;html=1;jettySize=auto;orthogonalLoop=1;fontSize=11;endArrow=block;endFill=0;endSize=8;strokeWidth=1;shadow=0;labelBackgroundColor=none;edgeStyle=orthogonalEdgeStyle;" edge="1" parent="WIyWlLk6GJQsqaUBKTNV-1">
          <mxGeometry relative="1" as="geometry">
            <mxPoint x="700" y="610" as="sourcePoint" />
            <mxPoint x="700" y="660" as="targetPoint" />
            <Array as="points">
              <mxPoint x="700" y="640" />
              <mxPoint x="700" y="640" />
            </Array>
          </mxGeometry>
        </mxCell>
        <mxCell id="nWBaPwG6AGPk3cazCdHM-47" value="WiFi是否加密" style="rhombus;whiteSpace=wrap;html=1;" vertex="1" parent="WIyWlLk6GJQsqaUBKTNV-1">
          <mxGeometry x="660" y="660" width="80" height="80" as="geometry" />
        </mxCell>
      </root>
    </mxGraphModel>
  </diagram>
</mxfile>
